<mxfile host="app.diagrams.net" agent="Mozilla/5.0 (Windows NT 10.0; Win64; x64) AppleWebKit/537.36 (KHTML, like Gecko) Chrome/138.0.0.0 Safari/537.36" version="28.0.6">
  <diagram name="Page-1" id="q2z6MJXYa_UQ_8rIewh5">
    <mxGraphModel dx="727" dy="359" grid="1" gridSize="10" guides="1" tooltips="1" connect="1" arrows="1" fold="1" page="1" pageScale="1" pageWidth="850" pageHeight="1100" math="0" shadow="0">
      <root>
        <mxCell id="0" />
        <mxCell id="1" parent="0" />
        <mxCell id="UGpgBa6ZrkNbVxkZz9o0-1" style="rounded=0;orthogonalLoop=1;jettySize=auto;html=1;exitX=1;exitY=0;exitDx=0;exitDy=0;endArrow=oval;endFill=1;" edge="1" parent="1">
          <mxGeometry relative="1" as="geometry">
            <mxPoint x="560" y="90" as="targetPoint" />
            <mxPoint x="500" y="90" as="sourcePoint" />
          </mxGeometry>
        </mxCell>
        <mxCell id="UGpgBa6ZrkNbVxkZz9o0-2" style="rounded=0;orthogonalLoop=1;jettySize=auto;html=1;exitX=1;exitY=0;exitDx=0;exitDy=0;endArrow=oval;endFill=0;" edge="1" parent="1">
          <mxGeometry relative="1" as="geometry">
            <mxPoint x="560" y="110" as="targetPoint" />
            <mxPoint x="500" y="110" as="sourcePoint" />
          </mxGeometry>
        </mxCell>
        <mxCell id="UGpgBa6ZrkNbVxkZz9o0-3" style="rounded=0;orthogonalLoop=1;jettySize=auto;html=1;exitX=1;exitY=0;exitDx=0;exitDy=0;endArrow=oval;endFill=0;" edge="1" parent="1">
          <mxGeometry relative="1" as="geometry">
            <mxPoint x="560" y="129.5" as="targetPoint" />
            <mxPoint x="500" y="129.5" as="sourcePoint" />
          </mxGeometry>
        </mxCell>
        <mxCell id="UGpgBa6ZrkNbVxkZz9o0-4" style="rounded=0;orthogonalLoop=1;jettySize=auto;html=1;exitX=1;exitY=0;exitDx=0;exitDy=0;endArrow=oval;endFill=0;" edge="1" parent="1">
          <mxGeometry relative="1" as="geometry">
            <mxPoint x="560" y="150" as="targetPoint" />
            <mxPoint x="500" y="150" as="sourcePoint" />
          </mxGeometry>
        </mxCell>
        <mxCell id="UGpgBa6ZrkNbVxkZz9o0-5" style="rounded=0;orthogonalLoop=1;jettySize=auto;html=1;exitX=1;exitY=0;exitDx=0;exitDy=0;endArrow=oval;endFill=0;" edge="1" parent="1">
          <mxGeometry relative="1" as="geometry">
            <mxPoint x="560" y="170" as="targetPoint" />
            <mxPoint x="500" y="170" as="sourcePoint" />
          </mxGeometry>
        </mxCell>
        <mxCell id="UGpgBa6ZrkNbVxkZz9o0-6" style="rounded=0;orthogonalLoop=1;jettySize=auto;html=1;endArrow=oval;endFill=0;" edge="1" parent="1">
          <mxGeometry relative="1" as="geometry">
            <mxPoint x="560" y="190" as="targetPoint" />
            <mxPoint x="500" y="170" as="sourcePoint" />
          </mxGeometry>
        </mxCell>
        <mxCell id="UGpgBa6ZrkNbVxkZz9o0-7" style="rounded=0;orthogonalLoop=1;jettySize=auto;html=1;exitX=1;exitY=1;exitDx=0;exitDy=0;endArrow=oval;endFill=0;" edge="1" parent="1">
          <mxGeometry relative="1" as="geometry">
            <mxPoint x="560" y="210" as="targetPoint" />
            <mxPoint x="500" y="170" as="sourcePoint" />
          </mxGeometry>
        </mxCell>
        <mxCell id="UGpgBa6ZrkNbVxkZz9o0-8" style="rounded=0;orthogonalLoop=1;jettySize=auto;html=1;exitX=1;exitY=1;exitDx=0;exitDy=0;endArrow=oval;endFill=0;" edge="1" parent="1">
          <mxGeometry relative="1" as="geometry">
            <mxPoint x="560" y="230" as="targetPoint" />
            <mxPoint x="500" y="170" as="sourcePoint" />
          </mxGeometry>
        </mxCell>
        <mxCell id="UGpgBa6ZrkNbVxkZz9o0-9" value="id" style="text;strokeColor=none;align=center;fillColor=none;html=1;verticalAlign=middle;whiteSpace=wrap;rounded=0;" vertex="1" parent="1">
          <mxGeometry x="560" y="80" width="20" height="20" as="geometry" />
        </mxCell>
        <mxCell id="UGpgBa6ZrkNbVxkZz9o0-10" value="nombre(s)" style="text;strokeColor=none;align=center;fillColor=none;html=1;verticalAlign=middle;whiteSpace=wrap;rounded=0;" vertex="1" parent="1">
          <mxGeometry x="560" y="100" width="70" height="20" as="geometry" />
        </mxCell>
        <mxCell id="UGpgBa6ZrkNbVxkZz9o0-11" value="apellido(s)" style="text;strokeColor=none;align=center;fillColor=none;html=1;verticalAlign=middle;whiteSpace=wrap;rounded=0;" vertex="1" parent="1">
          <mxGeometry x="560" y="120" width="70" height="20" as="geometry" />
        </mxCell>
        <mxCell id="UGpgBa6ZrkNbVxkZz9o0-12" value="direccion" style="text;strokeColor=none;align=center;fillColor=none;html=1;verticalAlign=middle;whiteSpace=wrap;rounded=0;" vertex="1" parent="1">
          <mxGeometry x="560" y="140" width="70" height="20" as="geometry" />
        </mxCell>
        <mxCell id="UGpgBa6ZrkNbVxkZz9o0-13" value="telefono" style="text;strokeColor=none;align=center;fillColor=none;html=1;verticalAlign=middle;whiteSpace=wrap;rounded=0;" vertex="1" parent="1">
          <mxGeometry x="560" y="160" width="60" height="20" as="geometry" />
        </mxCell>
        <mxCell id="UGpgBa6ZrkNbVxkZz9o0-14" value="correo" style="text;strokeColor=none;align=center;fillColor=none;html=1;verticalAlign=middle;whiteSpace=wrap;rounded=0;" vertex="1" parent="1">
          <mxGeometry x="560" y="180" width="50" height="20" as="geometry" />
        </mxCell>
        <mxCell id="UGpgBa6ZrkNbVxkZz9o0-15" value="contraseÃ±a" style="text;strokeColor=none;align=center;fillColor=none;html=1;verticalAlign=middle;whiteSpace=wrap;rounded=0;" vertex="1" parent="1">
          <mxGeometry x="560" y="200" width="70" height="20" as="geometry" />
        </mxCell>
        <mxCell id="UGpgBa6ZrkNbVxkZz9o0-16" value="permiso" style="text;strokeColor=none;align=center;fillColor=none;html=1;verticalAlign=middle;whiteSpace=wrap;rounded=0;" vertex="1" parent="1">
          <mxGeometry x="560" y="220" width="60" height="20" as="geometry" />
        </mxCell>
        <mxCell id="UGpgBa6ZrkNbVxkZz9o0-17" style="rounded=0;orthogonalLoop=1;jettySize=auto;html=1;exitX=0.5;exitY=1;exitDx=0;exitDy=0;endArrow=none;startFill=0;entryX=0.5;entryY=0;entryDx=0;entryDy=0;" edge="1" parent="1" source="UGpgBa6ZrkNbVxkZz9o0-18" target="UGpgBa6ZrkNbVxkZz9o0-20">
          <mxGeometry relative="1" as="geometry">
            <mxPoint x="240" y="220" as="targetPoint" />
          </mxGeometry>
        </mxCell>
        <mxCell id="UGpgBa6ZrkNbVxkZz9o0-18" value="Usuario" style="whiteSpace=wrap;html=1;" vertex="1" parent="1">
          <mxGeometry x="340" y="90" width="160" height="80" as="geometry" />
        </mxCell>
        <mxCell id="UGpgBa6ZrkNbVxkZz9o0-19" style="edgeStyle=orthogonalEdgeStyle;rounded=0;orthogonalLoop=1;jettySize=auto;html=1;exitX=0.5;exitY=1;exitDx=0;exitDy=0;entryX=0.5;entryY=0;entryDx=0;entryDy=0;" edge="1" parent="1" source="UGpgBa6ZrkNbVxkZz9o0-20" target="UGpgBa6ZrkNbVxkZz9o0-25">
          <mxGeometry relative="1" as="geometry">
            <mxPoint x="215.1428571428571" y="380" as="targetPoint" />
          </mxGeometry>
        </mxCell>
        <mxCell id="UGpgBa6ZrkNbVxkZz9o0-20" value="Realiza" style="rhombus;whiteSpace=wrap;html=1;" vertex="1" parent="1">
          <mxGeometry x="150" y="220" width="130" height="80" as="geometry" />
        </mxCell>
        <mxCell id="UGpgBa6ZrkNbVxkZz9o0-21" value="1,1" style="text;strokeColor=none;align=center;fillColor=none;html=1;verticalAlign=middle;whiteSpace=wrap;rounded=0;" vertex="1" parent="1">
          <mxGeometry x="190" y="190" width="60" height="30" as="geometry" />
        </mxCell>
        <mxCell id="UGpgBa6ZrkNbVxkZz9o0-22" value="1:N" style="text;strokeColor=none;align=center;fillColor=none;html=1;verticalAlign=middle;whiteSpace=wrap;rounded=0;fontStyle=1;fontSize=13;" vertex="1" parent="1">
          <mxGeometry x="100" y="245" width="60" height="30" as="geometry" />
        </mxCell>
        <mxCell id="UGpgBa6ZrkNbVxkZz9o0-23" style="rounded=0;orthogonalLoop=1;jettySize=auto;html=1;exitX=0;exitY=0;exitDx=0;exitDy=0;endArrow=oval;endFill=1;" edge="1" parent="1" source="UGpgBa6ZrkNbVxkZz9o0-25">
          <mxGeometry relative="1" as="geometry">
            <mxPoint x="110" y="379.8571428571429" as="targetPoint" />
          </mxGeometry>
        </mxCell>
        <mxCell id="UGpgBa6ZrkNbVxkZz9o0-24" style="edgeStyle=orthogonalEdgeStyle;rounded=0;orthogonalLoop=1;jettySize=auto;html=1;exitX=1;exitY=0.5;exitDx=0;exitDy=0;endArrow=none;startFill=0;entryX=0;entryY=0.5;entryDx=0;entryDy=0;" edge="1" parent="1" source="UGpgBa6ZrkNbVxkZz9o0-25" target="UGpgBa6ZrkNbVxkZz9o0-36">
          <mxGeometry relative="1" as="geometry">
            <mxPoint x="400" y="410.1428571428571" as="targetPoint" />
          </mxGeometry>
        </mxCell>
        <mxCell id="UGpgBa6ZrkNbVxkZz9o0-25" value="Pedido" style="rounded=0;whiteSpace=wrap;html=1;" vertex="1" parent="1">
          <mxGeometry x="155" y="380" width="120" height="60" as="geometry" />
        </mxCell>
        <mxCell id="UGpgBa6ZrkNbVxkZz9o0-27" style="rounded=0;orthogonalLoop=1;jettySize=auto;html=1;exitX=0;exitY=0;exitDx=0;exitDy=0;endArrow=oval;endFill=0;" edge="1" parent="1">
          <mxGeometry relative="1" as="geometry">
            <mxPoint x="110" y="399.58" as="targetPoint" />
            <mxPoint x="155" y="399.7228571428571" as="sourcePoint" />
          </mxGeometry>
        </mxCell>
        <mxCell id="UGpgBa6ZrkNbVxkZz9o0-28" style="rounded=0;orthogonalLoop=1;jettySize=auto;html=1;exitX=0;exitY=0;exitDx=0;exitDy=0;endArrow=oval;endFill=0;" edge="1" parent="1">
          <mxGeometry relative="1" as="geometry">
            <mxPoint x="110" y="409.17" as="targetPoint" />
            <mxPoint x="155" y="409.3128571428571" as="sourcePoint" />
          </mxGeometry>
        </mxCell>
        <mxCell id="UGpgBa6ZrkNbVxkZz9o0-29" value="id" style="text;strokeColor=none;align=center;fillColor=none;html=1;verticalAlign=middle;whiteSpace=wrap;rounded=0;" vertex="1" parent="1">
          <mxGeometry x="90" y="370" width="20" height="20" as="geometry" />
        </mxCell>
        <mxCell id="UGpgBa6ZrkNbVxkZz9o0-30" value="fecha" style="text;strokeColor=none;align=center;fillColor=none;html=1;verticalAlign=middle;whiteSpace=wrap;rounded=0;" vertex="1" parent="1">
          <mxGeometry x="70" y="380" width="40" height="20" as="geometry" />
        </mxCell>
        <mxCell id="UGpgBa6ZrkNbVxkZz9o0-31" value="idtransaccion" style="text;strokeColor=none;align=center;fillColor=none;html=1;verticalAlign=middle;whiteSpace=wrap;rounded=0;" vertex="1" parent="1">
          <mxGeometry x="30" y="390" width="80" height="20" as="geometry" />
        </mxCell>
        <mxCell id="UGpgBa6ZrkNbVxkZz9o0-32" value="statusPaypal" style="text;strokeColor=none;align=center;fillColor=none;html=1;verticalAlign=middle;whiteSpace=wrap;rounded=0;" vertex="1" parent="1">
          <mxGeometry x="60" y="400" width="20" height="20" as="geometry" />
        </mxCell>
        <mxCell id="UGpgBa6ZrkNbVxkZz9o0-33" value="1,n" style="text;strokeColor=none;align=center;fillColor=none;html=1;verticalAlign=middle;whiteSpace=wrap;rounded=0;" vertex="1" parent="1">
          <mxGeometry x="215" y="320" width="35" height="30" as="geometry" />
        </mxCell>
        <mxCell id="UGpgBa6ZrkNbVxkZz9o0-34" style="rounded=0;orthogonalLoop=1;jettySize=auto;html=1;exitX=0;exitY=0;exitDx=0;exitDy=0;endArrow=oval;endFill=1;" edge="1" parent="1" source="UGpgBa6ZrkNbVxkZz9o0-36">
          <mxGeometry relative="1" as="geometry">
            <mxPoint x="410" y="380" as="targetPoint" />
          </mxGeometry>
        </mxCell>
        <mxCell id="UGpgBa6ZrkNbVxkZz9o0-35" style="edgeStyle=orthogonalEdgeStyle;rounded=0;orthogonalLoop=1;jettySize=auto;html=1;exitX=1;exitY=0.5;exitDx=0;exitDy=0;endArrow=none;startFill=0;entryX=0;entryY=0.5;entryDx=0;entryDy=0;" edge="1" parent="1" source="UGpgBa6ZrkNbVxkZz9o0-36" target="UGpgBa6ZrkNbVxkZz9o0-46">
          <mxGeometry relative="1" as="geometry">
            <mxPoint x="660" y="410.1428571428571" as="targetPoint" />
          </mxGeometry>
        </mxCell>
        <mxCell id="UGpgBa6ZrkNbVxkZz9o0-99" style="rounded=0;orthogonalLoop=1;jettySize=auto;html=1;exitX=1;exitY=1;exitDx=0;exitDy=0;endArrow=oval;endFill=0;" edge="1" parent="1" source="UGpgBa6ZrkNbVxkZz9o0-36">
          <mxGeometry relative="1" as="geometry">
            <mxPoint x="520" y="450" as="targetPoint" />
          </mxGeometry>
        </mxCell>
        <mxCell id="UGpgBa6ZrkNbVxkZz9o0-36" value="Contiene" style="rhombus;whiteSpace=wrap;html=1;" vertex="1" parent="1">
          <mxGeometry x="400" y="370" width="130" height="80" as="geometry" />
        </mxCell>
        <mxCell id="UGpgBa6ZrkNbVxkZz9o0-37" value="1,n" style="text;strokeColor=none;align=center;fillColor=none;html=1;verticalAlign=middle;whiteSpace=wrap;rounded=0;" vertex="1" parent="1">
          <mxGeometry x="320" y="385" width="35" height="30" as="geometry" />
        </mxCell>
        <mxCell id="UGpgBa6ZrkNbVxkZz9o0-38" value="id" style="text;strokeColor=none;align=center;fillColor=none;html=1;verticalAlign=middle;whiteSpace=wrap;rounded=0;" vertex="1" parent="1">
          <mxGeometry x="390" y="365" width="20" height="20" as="geometry" />
        </mxCell>
        <mxCell id="UGpgBa6ZrkNbVxkZz9o0-39" value="" style="endArrow=oval;startArrow=none;html=1;rounded=0;startFill=0;endFill=0;" edge="1" parent="1">
          <mxGeometry width="50" height="50" relative="1" as="geometry">
            <mxPoint x="480.0032323232321" y="379.9973737373738" as="sourcePoint" />
            <mxPoint x="500" y="370" as="targetPoint" />
          </mxGeometry>
        </mxCell>
        <mxCell id="UGpgBa6ZrkNbVxkZz9o0-40" value="cantidad" style="text;strokeColor=none;align=center;fillColor=none;html=1;verticalAlign=middle;whiteSpace=wrap;rounded=0;" vertex="1" parent="1">
          <mxGeometry x="500" y="350" width="50" height="20" as="geometry" />
        </mxCell>
        <mxCell id="UGpgBa6ZrkNbVxkZz9o0-41" value="" style="endArrow=oval;html=1;rounded=0;endFill=0;exitX=0.813;exitY=0.323;exitDx=0;exitDy=0;exitPerimeter=0;" edge="1" parent="1" source="UGpgBa6ZrkNbVxkZz9o0-36">
          <mxGeometry width="50" height="50" relative="1" as="geometry">
            <mxPoint x="510" y="390" as="sourcePoint" />
            <mxPoint x="530" y="380" as="targetPoint" />
          </mxGeometry>
        </mxCell>
        <mxCell id="UGpgBa6ZrkNbVxkZz9o0-42" value="precio" style="text;strokeColor=none;align=center;fillColor=none;html=1;verticalAlign=middle;whiteSpace=wrap;rounded=0;" vertex="1" parent="1">
          <mxGeometry x="530" y="365" width="50" height="20" as="geometry" />
        </mxCell>
        <mxCell id="UGpgBa6ZrkNbVxkZz9o0-43" style="rounded=0;orthogonalLoop=1;jettySize=auto;html=1;exitX=1;exitY=0;exitDx=0;exitDy=0;endArrow=oval;endFill=1;" edge="1" parent="1" source="UGpgBa6ZrkNbVxkZz9o0-46">
          <mxGeometry relative="1" as="geometry">
            <mxPoint x="830" y="379.8571428571429" as="targetPoint" />
          </mxGeometry>
        </mxCell>
        <mxCell id="UGpgBa6ZrkNbVxkZz9o0-44" style="rounded=0;orthogonalLoop=1;jettySize=auto;html=1;exitX=0.5;exitY=0;exitDx=0;exitDy=0;startArrow=block;startFill=1;endArrow=none;entryX=0.5;entryY=1;entryDx=0;entryDy=0;" edge="1" parent="1" source="UGpgBa6ZrkNbVxkZz9o0-46" target="UGpgBa6ZrkNbVxkZz9o0-57">
          <mxGeometry relative="1" as="geometry">
            <mxPoint x="920" y="270" as="targetPoint" />
          </mxGeometry>
        </mxCell>
        <mxCell id="UGpgBa6ZrkNbVxkZz9o0-45" style="edgeStyle=orthogonalEdgeStyle;rounded=0;orthogonalLoop=1;jettySize=auto;html=1;exitX=0.5;exitY=1;exitDx=0;exitDy=0;entryX=0.5;entryY=0;entryDx=0;entryDy=0;endArrow=none;startFill=0;" edge="1" parent="1" source="UGpgBa6ZrkNbVxkZz9o0-46" target="UGpgBa6ZrkNbVxkZz9o0-68">
          <mxGeometry relative="1" as="geometry">
            <mxPoint x="730" y="530" as="targetPoint" />
          </mxGeometry>
        </mxCell>
        <mxCell id="UGpgBa6ZrkNbVxkZz9o0-109" style="edgeStyle=orthogonalEdgeStyle;rounded=0;orthogonalLoop=1;jettySize=auto;html=1;exitX=0.5;exitY=0;exitDx=0;exitDy=0;endArrow=none;endFill=0;entryX=0;entryY=0.5;entryDx=0;entryDy=0;" edge="1" parent="1" source="UGpgBa6ZrkNbVxkZz9o0-46" target="UGpgBa6ZrkNbVxkZz9o0-110">
          <mxGeometry relative="1" as="geometry">
            <mxPoint x="1050" y="350" as="targetPoint" />
            <Array as="points">
              <mxPoint x="730" y="340" />
              <mxPoint x="1020" y="340" />
              <mxPoint x="1020" y="350" />
            </Array>
          </mxGeometry>
        </mxCell>
        <mxCell id="UGpgBa6ZrkNbVxkZz9o0-46" value="Productos" style="rounded=0;whiteSpace=wrap;html=1;" vertex="1" parent="1">
          <mxGeometry x="670" y="380" width="120" height="60" as="geometry" />
        </mxCell>
        <mxCell id="UGpgBa6ZrkNbVxkZz9o0-47" value="id" style="text;strokeColor=none;align=center;fillColor=none;html=1;verticalAlign=middle;whiteSpace=wrap;rounded=0;" vertex="1" parent="1">
          <mxGeometry x="830" y="370" width="20" height="20" as="geometry" />
        </mxCell>
        <mxCell id="UGpgBa6ZrkNbVxkZz9o0-48" style="rounded=0;orthogonalLoop=1;jettySize=auto;html=1;exitX=1;exitY=0;exitDx=0;exitDy=0;endArrow=oval;endFill=0;" edge="1" parent="1">
          <mxGeometry relative="1" as="geometry">
            <mxPoint x="830" y="390" as="targetPoint" />
            <mxPoint x="790" y="390.1428571428571" as="sourcePoint" />
          </mxGeometry>
        </mxCell>
        <mxCell id="UGpgBa6ZrkNbVxkZz9o0-49" style="rounded=0;orthogonalLoop=1;jettySize=auto;html=1;exitX=1;exitY=0;exitDx=0;exitDy=0;endArrow=oval;endFill=0;" edge="1" parent="1">
          <mxGeometry relative="1" as="geometry">
            <mxPoint x="830" y="399.71000000000004" as="targetPoint" />
            <mxPoint x="790" y="399.85285714285715" as="sourcePoint" />
          </mxGeometry>
        </mxCell>
        <mxCell id="UGpgBa6ZrkNbVxkZz9o0-50" style="rounded=0;orthogonalLoop=1;jettySize=auto;html=1;exitX=1;exitY=0;exitDx=0;exitDy=0;endArrow=oval;endFill=0;" edge="1" parent="1">
          <mxGeometry relative="1" as="geometry">
            <mxPoint x="830" y="410" as="targetPoint" />
            <mxPoint x="790" y="410.1428571428571" as="sourcePoint" />
          </mxGeometry>
        </mxCell>
        <mxCell id="UGpgBa6ZrkNbVxkZz9o0-51" style="rounded=0;orthogonalLoop=1;jettySize=auto;html=1;exitX=1;exitY=0;exitDx=0;exitDy=0;endArrow=oval;endFill=0;" edge="1" parent="1">
          <mxGeometry relative="1" as="geometry">
            <mxPoint x="830" y="419.71000000000004" as="targetPoint" />
            <mxPoint x="790" y="419.85285714285715" as="sourcePoint" />
          </mxGeometry>
        </mxCell>
        <mxCell id="UGpgBa6ZrkNbVxkZz9o0-52" value="nombre" style="text;strokeColor=none;align=center;fillColor=none;html=1;verticalAlign=middle;whiteSpace=wrap;rounded=0;" vertex="1" parent="1">
          <mxGeometry x="830" y="380" width="50" height="20" as="geometry" />
        </mxCell>
        <mxCell id="UGpgBa6ZrkNbVxkZz9o0-53" value="ruta_img" style="text;strokeColor=none;align=center;fillColor=none;html=1;verticalAlign=middle;whiteSpace=wrap;rounded=0;" vertex="1" parent="1">
          <mxGeometry x="830" y="390" width="60" height="20" as="geometry" />
        </mxCell>
        <mxCell id="UGpgBa6ZrkNbVxkZz9o0-54" value="precio1" style="text;strokeColor=none;align=center;fillColor=none;html=1;verticalAlign=middle;whiteSpace=wrap;rounded=0;" vertex="1" parent="1">
          <mxGeometry x="840" y="400" width="40" height="20" as="geometry" />
        </mxCell>
        <mxCell id="UGpgBa6ZrkNbVxkZz9o0-55" value="precio2" style="text;strokeColor=none;align=center;fillColor=none;html=1;verticalAlign=middle;whiteSpace=wrap;rounded=0;" vertex="1" parent="1">
          <mxGeometry x="835" y="410" width="40" height="20" as="geometry" />
        </mxCell>
        <mxCell id="UGpgBa6ZrkNbVxkZz9o0-56" style="rounded=0;orthogonalLoop=1;jettySize=auto;html=1;exitX=0.5;exitY=0;exitDx=0;exitDy=0;endArrow=none;startFill=0;entryX=0.5;entryY=1;entryDx=0;entryDy=0;" edge="1" parent="1" source="UGpgBa6ZrkNbVxkZz9o0-57" target="UGpgBa6ZrkNbVxkZz9o0-62">
          <mxGeometry relative="1" as="geometry">
            <mxPoint x="1000" y="140" as="targetPoint" />
          </mxGeometry>
        </mxCell>
        <mxCell id="UGpgBa6ZrkNbVxkZz9o0-57" value="Pertenece" style="rhombus;whiteSpace=wrap;html=1;" vertex="1" parent="1">
          <mxGeometry x="875" y="180" width="130" height="80" as="geometry" />
        </mxCell>
        <mxCell id="UGpgBa6ZrkNbVxkZz9o0-58" value="1,n" style="text;strokeColor=none;align=center;fillColor=none;html=1;verticalAlign=middle;whiteSpace=wrap;rounded=0;" vertex="1" parent="1">
          <mxGeometry x="585" y="385" width="35" height="30" as="geometry" />
        </mxCell>
        <mxCell id="UGpgBa6ZrkNbVxkZz9o0-59" value="1,n" style="text;strokeColor=none;align=center;fillColor=none;html=1;verticalAlign=middle;whiteSpace=wrap;rounded=0;" vertex="1" parent="1">
          <mxGeometry x="910" y="280" width="35" height="30" as="geometry" />
        </mxCell>
        <mxCell id="UGpgBa6ZrkNbVxkZz9o0-60" value="1,n" style="text;strokeColor=none;align=center;fillColor=none;html=1;verticalAlign=middle;whiteSpace=wrap;rounded=0;" vertex="1" parent="1">
          <mxGeometry x="930" y="135" width="35" height="30" as="geometry" />
        </mxCell>
        <mxCell id="UGpgBa6ZrkNbVxkZz9o0-61" value="1:N" style="text;strokeColor=none;align=center;fillColor=none;html=1;verticalAlign=middle;whiteSpace=wrap;rounded=0;fontStyle=1;fontSize=13;" vertex="1" parent="1">
          <mxGeometry x="1005" y="205" width="25" height="30" as="geometry" />
        </mxCell>
        <mxCell id="UGpgBa6ZrkNbVxkZz9o0-62" value="Categoria" style="rounded=0;whiteSpace=wrap;html=1;" vertex="1" parent="1">
          <mxGeometry x="1005" y="50" width="130" height="60" as="geometry" />
        </mxCell>
        <mxCell id="UGpgBa6ZrkNbVxkZz9o0-63" style="rounded=0;orthogonalLoop=1;jettySize=auto;html=1;exitX=1;exitY=0;exitDx=0;exitDy=0;endArrow=oval;endFill=1;" edge="1" parent="1">
          <mxGeometry relative="1" as="geometry">
            <mxPoint x="1175" y="50" as="targetPoint" />
            <mxPoint x="1135" y="50.14285714285711" as="sourcePoint" />
          </mxGeometry>
        </mxCell>
        <mxCell id="UGpgBa6ZrkNbVxkZz9o0-64" style="rounded=0;orthogonalLoop=1;jettySize=auto;html=1;exitX=1;exitY=0;exitDx=0;exitDy=0;endArrow=oval;endFill=0;" edge="1" parent="1">
          <mxGeometry relative="1" as="geometry">
            <mxPoint x="1175" y="70" as="targetPoint" />
            <mxPoint x="1135" y="70.14285714285711" as="sourcePoint" />
          </mxGeometry>
        </mxCell>
        <mxCell id="UGpgBa6ZrkNbVxkZz9o0-65" value="id" style="text;strokeColor=none;align=center;fillColor=none;html=1;verticalAlign=middle;whiteSpace=wrap;rounded=0;" vertex="1" parent="1">
          <mxGeometry x="1180" y="40" width="20" height="20" as="geometry" />
        </mxCell>
        <mxCell id="UGpgBa6ZrkNbVxkZz9o0-66" value="nombre" style="text;strokeColor=none;align=center;fillColor=none;html=1;verticalAlign=middle;whiteSpace=wrap;rounded=0;" vertex="1" parent="1">
          <mxGeometry x="1180" y="60" width="40" height="20" as="geometry" />
        </mxCell>
        <mxCell id="UGpgBa6ZrkNbVxkZz9o0-67" style="rounded=0;orthogonalLoop=1;jettySize=auto;html=1;exitX=1;exitY=0;exitDx=0;exitDy=0;endArrow=oval;endFill=1;" edge="1" parent="1" source="UGpgBa6ZrkNbVxkZz9o0-68">
          <mxGeometry relative="1" as="geometry">
            <mxPoint x="790" y="540" as="targetPoint" />
          </mxGeometry>
        </mxCell>
        <mxCell id="UGpgBa6ZrkNbVxkZz9o0-68" value="Paquete" style="rhombus;whiteSpace=wrap;html=1;" vertex="1" parent="1">
          <mxGeometry x="665" y="540" width="130" height="80" as="geometry" />
        </mxCell>
        <mxCell id="UGpgBa6ZrkNbVxkZz9o0-69" style="edgeStyle=orthogonalEdgeStyle;rounded=0;orthogonalLoop=1;jettySize=auto;html=1;entryX=0.5;entryY=1;entryDx=0;entryDy=0;endArrow=none;startFill=0;" edge="1" parent="1" source="UGpgBa6ZrkNbVxkZz9o0-71" target="UGpgBa6ZrkNbVxkZz9o0-68">
          <mxGeometry relative="1" as="geometry" />
        </mxCell>
        <mxCell id="UGpgBa6ZrkNbVxkZz9o0-70" style="rounded=0;orthogonalLoop=1;jettySize=auto;html=1;exitX=1;exitY=0;exitDx=0;exitDy=0;endArrow=oval;endFill=1;" edge="1" parent="1" source="UGpgBa6ZrkNbVxkZz9o0-71">
          <mxGeometry relative="1" as="geometry">
            <mxPoint x="820" y="720" as="targetPoint" />
          </mxGeometry>
        </mxCell>
        <mxCell id="UGpgBa6ZrkNbVxkZz9o0-71" value="Inventario" style="rounded=0;whiteSpace=wrap;html=1;" vertex="1" parent="1">
          <mxGeometry x="670" y="720" width="120" height="50" as="geometry" />
        </mxCell>
        <mxCell id="UGpgBa6ZrkNbVxkZz9o0-72" value="id" style="text;strokeColor=none;align=center;fillColor=none;html=1;verticalAlign=middle;whiteSpace=wrap;rounded=0;" vertex="1" parent="1">
          <mxGeometry x="795" y="520" width="20" height="20" as="geometry" />
        </mxCell>
        <mxCell id="UGpgBa6ZrkNbVxkZz9o0-73" value="1,n" style="text;strokeColor=none;align=center;fillColor=none;html=1;verticalAlign=middle;whiteSpace=wrap;rounded=0;" vertex="1" parent="1">
          <mxGeometry x="730" y="500" width="35" height="30" as="geometry" />
        </mxCell>
        <mxCell id="UGpgBa6ZrkNbVxkZz9o0-74" value="1,n" style="text;strokeColor=none;align=center;fillColor=none;html=1;verticalAlign=middle;whiteSpace=wrap;rounded=0;" vertex="1" parent="1">
          <mxGeometry x="740" y="620" width="35" height="30" as="geometry" />
        </mxCell>
        <mxCell id="UGpgBa6ZrkNbVxkZz9o0-75" value="M:N" style="text;strokeColor=none;align=center;fillColor=none;html=1;verticalAlign=middle;whiteSpace=wrap;rounded=0;fontStyle=1" vertex="1" parent="1">
          <mxGeometry x="800" y="565" width="25" height="30" as="geometry" />
        </mxCell>
        <mxCell id="UGpgBa6ZrkNbVxkZz9o0-76" value="M:N" style="text;strokeColor=none;align=center;fillColor=none;html=1;verticalAlign=middle;whiteSpace=wrap;rounded=0;fontStyle=1" vertex="1" parent="1">
          <mxGeometry x="453" y="335" width="25" height="30" as="geometry" />
        </mxCell>
        <mxCell id="UGpgBa6ZrkNbVxkZz9o0-77" style="rounded=0;orthogonalLoop=1;jettySize=auto;html=1;exitX=1;exitY=0;exitDx=0;exitDy=0;endArrow=oval;endFill=0;" edge="1" parent="1">
          <mxGeometry relative="1" as="geometry">
            <mxPoint x="820" y="730" as="targetPoint" />
            <mxPoint x="790" y="730" as="sourcePoint" />
          </mxGeometry>
        </mxCell>
        <mxCell id="UGpgBa6ZrkNbVxkZz9o0-78" style="rounded=0;orthogonalLoop=1;jettySize=auto;html=1;exitX=1;exitY=0;exitDx=0;exitDy=0;endArrow=oval;endFill=0;" edge="1" parent="1">
          <mxGeometry relative="1" as="geometry">
            <mxPoint x="820" y="740" as="targetPoint" />
            <mxPoint x="790" y="740" as="sourcePoint" />
          </mxGeometry>
        </mxCell>
        <mxCell id="UGpgBa6ZrkNbVxkZz9o0-79" style="rounded=0;orthogonalLoop=1;jettySize=auto;html=1;exitX=1;exitY=0;exitDx=0;exitDy=0;endArrow=oval;endFill=0;" edge="1" parent="1">
          <mxGeometry relative="1" as="geometry">
            <mxPoint x="820" y="750" as="targetPoint" />
            <mxPoint x="790" y="750" as="sourcePoint" />
          </mxGeometry>
        </mxCell>
        <mxCell id="UGpgBa6ZrkNbVxkZz9o0-80" style="rounded=0;orthogonalLoop=1;jettySize=auto;html=1;exitX=1;exitY=0;exitDx=0;exitDy=0;endArrow=oval;endFill=0;" edge="1" parent="1">
          <mxGeometry relative="1" as="geometry">
            <mxPoint x="820" y="760" as="targetPoint" />
            <mxPoint x="790" y="760" as="sourcePoint" />
          </mxGeometry>
        </mxCell>
        <mxCell id="UGpgBa6ZrkNbVxkZz9o0-81" style="rounded=0;orthogonalLoop=1;jettySize=auto;html=1;exitX=1;exitY=0;exitDx=0;exitDy=0;endArrow=oval;endFill=0;" edge="1" parent="1">
          <mxGeometry relative="1" as="geometry">
            <mxPoint x="820" y="770" as="targetPoint" />
            <mxPoint x="790" y="770" as="sourcePoint" />
          </mxGeometry>
        </mxCell>
        <mxCell id="UGpgBa6ZrkNbVxkZz9o0-82" value="id" style="text;strokeColor=none;align=center;fillColor=none;html=1;verticalAlign=middle;whiteSpace=wrap;rounded=0;" vertex="1" parent="1">
          <mxGeometry x="820" y="710" width="20" height="20" as="geometry" />
        </mxCell>
        <mxCell id="UGpgBa6ZrkNbVxkZz9o0-83" value="nombre" style="text;strokeColor=none;align=center;fillColor=none;html=1;verticalAlign=middle;whiteSpace=wrap;rounded=0;" vertex="1" parent="1">
          <mxGeometry x="825" y="720" width="40" height="20" as="geometry" />
        </mxCell>
        <mxCell id="UGpgBa6ZrkNbVxkZz9o0-84" value="stock" style="text;strokeColor=none;align=center;fillColor=none;html=1;verticalAlign=middle;whiteSpace=wrap;rounded=0;" vertex="1" parent="1">
          <mxGeometry x="820" y="730" width="40" height="20" as="geometry" />
        </mxCell>
        <mxCell id="UGpgBa6ZrkNbVxkZz9o0-85" value="fecha_caducidad" style="text;strokeColor=none;align=center;fillColor=none;html=1;verticalAlign=middle;whiteSpace=wrap;rounded=0;" vertex="1" parent="1">
          <mxGeometry x="825" y="740" width="90" height="20" as="geometry" />
        </mxCell>
        <mxCell id="UGpgBa6ZrkNbVxkZz9o0-86" value="fecha_entrada" style="text;strokeColor=none;align=center;fillColor=none;html=1;verticalAlign=middle;whiteSpace=wrap;rounded=0;" vertex="1" parent="1">
          <mxGeometry x="825" y="750" width="75" height="20" as="geometry" />
        </mxCell>
        <mxCell id="UGpgBa6ZrkNbVxkZz9o0-87" value="tipo_almacenamiento" style="text;strokeColor=none;align=center;fillColor=none;html=1;verticalAlign=middle;whiteSpace=wrap;rounded=0;" vertex="1" parent="1">
          <mxGeometry x="820" y="760" width="120" height="20" as="geometry" />
        </mxCell>
        <mxCell id="UGpgBa6ZrkNbVxkZz9o0-92" style="rounded=0;orthogonalLoop=1;jettySize=auto;html=1;exitX=0;exitY=0;exitDx=0;exitDy=0;endArrow=oval;endFill=0;" edge="1" parent="1">
          <mxGeometry relative="1" as="geometry">
            <mxPoint x="110" y="419.17" as="targetPoint" />
            <mxPoint x="155" y="419.3128571428571" as="sourcePoint" />
          </mxGeometry>
        </mxCell>
        <mxCell id="UGpgBa6ZrkNbVxkZz9o0-93" value="correo" style="text;strokeColor=none;align=center;fillColor=none;html=1;verticalAlign=middle;whiteSpace=wrap;rounded=0;" vertex="1" parent="1">
          <mxGeometry x="60" y="410" width="40" height="20" as="geometry" />
        </mxCell>
        <mxCell id="UGpgBa6ZrkNbVxkZz9o0-94" style="rounded=0;orthogonalLoop=1;jettySize=auto;html=1;exitX=0;exitY=0;exitDx=0;exitDy=0;endArrow=oval;endFill=0;" edge="1" parent="1">
          <mxGeometry relative="1" as="geometry">
            <mxPoint x="110" y="430" as="targetPoint" />
            <mxPoint x="155" y="430.1428571428571" as="sourcePoint" />
          </mxGeometry>
        </mxCell>
        <mxCell id="UGpgBa6ZrkNbVxkZz9o0-95" value="total" style="text;strokeColor=none;align=center;fillColor=none;html=1;verticalAlign=middle;whiteSpace=wrap;rounded=0;" vertex="1" parent="1">
          <mxGeometry x="70" y="420" width="40" height="20" as="geometry" />
        </mxCell>
        <mxCell id="UGpgBa6ZrkNbVxkZz9o0-98" style="rounded=0;orthogonalLoop=1;jettySize=auto;html=1;exitX=1;exitY=1;exitDx=0;exitDy=0;" edge="1" parent="1" source="UGpgBa6ZrkNbVxkZz9o0-36" target="UGpgBa6ZrkNbVxkZz9o0-36">
          <mxGeometry relative="1" as="geometry" />
        </mxCell>
        <mxCell id="UGpgBa6ZrkNbVxkZz9o0-100" value="nombre" style="text;strokeColor=none;align=center;fillColor=none;html=1;verticalAlign=middle;whiteSpace=wrap;rounded=0;" vertex="1" parent="1">
          <mxGeometry x="520" y="440" width="50" height="20" as="geometry" />
        </mxCell>
        <mxCell id="UGpgBa6ZrkNbVxkZz9o0-101" style="rounded=0;orthogonalLoop=1;jettySize=auto;html=1;exitX=1;exitY=0;exitDx=0;exitDy=0;endArrow=oval;endFill=0;" edge="1" parent="1">
          <mxGeometry relative="1" as="geometry">
            <mxPoint x="830" y="430" as="targetPoint" />
            <mxPoint x="790" y="430.1428571428571" as="sourcePoint" />
          </mxGeometry>
        </mxCell>
        <mxCell id="UGpgBa6ZrkNbVxkZz9o0-102" value="precio3" style="text;strokeColor=none;align=center;fillColor=none;html=1;verticalAlign=middle;whiteSpace=wrap;rounded=0;" vertex="1" parent="1">
          <mxGeometry x="835" y="420" width="40" height="20" as="geometry" />
        </mxCell>
        <mxCell id="UGpgBa6ZrkNbVxkZz9o0-103" style="rounded=0;orthogonalLoop=1;jettySize=auto;html=1;exitX=1;exitY=0;exitDx=0;exitDy=0;endArrow=oval;endFill=0;" edge="1" parent="1">
          <mxGeometry relative="1" as="geometry">
            <mxPoint x="830" y="439.43" as="targetPoint" />
            <mxPoint x="790" y="439.5728571428571" as="sourcePoint" />
          </mxGeometry>
        </mxCell>
        <mxCell id="UGpgBa6ZrkNbVxkZz9o0-104" value="codigo" style="text;strokeColor=none;align=center;fillColor=none;html=1;verticalAlign=middle;whiteSpace=wrap;rounded=0;" vertex="1" parent="1">
          <mxGeometry x="830" y="430" width="50" height="20" as="geometry" />
        </mxCell>
        <mxCell id="UGpgBa6ZrkNbVxkZz9o0-105" style="rounded=0;orthogonalLoop=1;jettySize=auto;html=1;exitX=1;exitY=1;exitDx=0;exitDy=0;endArrow=oval;endFill=0;" edge="1" parent="1" source="UGpgBa6ZrkNbVxkZz9o0-46">
          <mxGeometry relative="1" as="geometry">
            <mxPoint x="830" y="450" as="targetPoint" />
            <mxPoint x="790" y="450.1428571428571" as="sourcePoint" />
          </mxGeometry>
        </mxCell>
        <mxCell id="UGpgBa6ZrkNbVxkZz9o0-108" value="existencia" style="text;strokeColor=none;align=center;fillColor=none;html=1;verticalAlign=middle;whiteSpace=wrap;rounded=0;" vertex="1" parent="1">
          <mxGeometry x="830" y="440" width="70" height="20" as="geometry" />
        </mxCell>
        <mxCell id="UGpgBa6ZrkNbVxkZz9o0-117" style="edgeStyle=orthogonalEdgeStyle;rounded=0;orthogonalLoop=1;jettySize=auto;html=1;exitX=1;exitY=0.5;exitDx=0;exitDy=0;endArrow=none;endFill=0;entryX=0;entryY=0.5;entryDx=0;entryDy=0;" edge="1" parent="1" source="UGpgBa6ZrkNbVxkZz9o0-110" target="UGpgBa6ZrkNbVxkZz9o0-118">
          <mxGeometry relative="1" as="geometry">
            <mxPoint x="1300" y="350" as="targetPoint" />
          </mxGeometry>
        </mxCell>
        <mxCell id="UGpgBa6ZrkNbVxkZz9o0-110" value="Tiene" style="rhombus;whiteSpace=wrap;html=1;" vertex="1" parent="1">
          <mxGeometry x="1060" y="310" width="130" height="80" as="geometry" />
        </mxCell>
        <mxCell id="UGpgBa6ZrkNbVxkZz9o0-111" style="rounded=0;orthogonalLoop=1;jettySize=auto;html=1;exitX=0;exitY=1;exitDx=0;exitDy=0;endArrow=oval;endFill=1;" edge="1" parent="1" source="UGpgBa6ZrkNbVxkZz9o0-110">
          <mxGeometry relative="1" as="geometry">
            <mxPoint x="1070" y="380" as="targetPoint" />
            <mxPoint x="1060" y="410.1428571428571" as="sourcePoint" />
          </mxGeometry>
        </mxCell>
        <mxCell id="UGpgBa6ZrkNbVxkZz9o0-112" value="id" style="text;strokeColor=none;align=center;fillColor=none;html=1;verticalAlign=middle;whiteSpace=wrap;rounded=0;" vertex="1" parent="1">
          <mxGeometry x="1050" y="380" width="20" height="20" as="geometry" />
        </mxCell>
        <mxCell id="UGpgBa6ZrkNbVxkZz9o0-113" style="rounded=0;orthogonalLoop=1;jettySize=auto;html=1;exitX=1;exitY=1;exitDx=0;exitDy=0;endArrow=oval;endFill=0;" edge="1" parent="1" source="UGpgBa6ZrkNbVxkZz9o0-110">
          <mxGeometry relative="1" as="geometry">
            <mxPoint x="1180" y="390" as="targetPoint" />
            <mxPoint x="1140" y="430.1428571428571" as="sourcePoint" />
          </mxGeometry>
        </mxCell>
        <mxCell id="UGpgBa6ZrkNbVxkZz9o0-114" value="cantidad" style="text;strokeColor=none;align=center;fillColor=none;html=1;verticalAlign=middle;whiteSpace=wrap;rounded=0;" vertex="1" parent="1">
          <mxGeometry x="1180" y="380" width="60" height="20" as="geometry" />
        </mxCell>
        <mxCell id="UGpgBa6ZrkNbVxkZz9o0-115" value="1,n" style="text;strokeColor=none;align=center;fillColor=none;html=1;verticalAlign=middle;whiteSpace=wrap;rounded=0;" vertex="1" parent="1">
          <mxGeometry x="1025" y="345" width="35" height="30" as="geometry" />
        </mxCell>
        <mxCell id="UGpgBa6ZrkNbVxkZz9o0-116" value="M:N" style="text;strokeColor=none;align=center;fillColor=none;html=1;verticalAlign=middle;whiteSpace=wrap;rounded=0;fontStyle=1;fontSize=13;" vertex="1" parent="1">
          <mxGeometry x="1112.5" y="280" width="25" height="30" as="geometry" />
        </mxCell>
        <mxCell id="UGpgBa6ZrkNbVxkZz9o0-119" style="edgeStyle=orthogonalEdgeStyle;rounded=0;orthogonalLoop=1;jettySize=auto;html=1;exitX=1;exitY=0.25;exitDx=0;exitDy=0;endArrow=oval;endFill=1;" edge="1" parent="1" source="UGpgBa6ZrkNbVxkZz9o0-118">
          <mxGeometry relative="1" as="geometry">
            <mxPoint x="1470" y="335.1428571428571" as="targetPoint" />
          </mxGeometry>
        </mxCell>
        <mxCell id="UGpgBa6ZrkNbVxkZz9o0-118" value="Ventas" style="rounded=0;whiteSpace=wrap;html=1;" vertex="1" parent="1">
          <mxGeometry x="1320" y="320" width="120" height="60" as="geometry" />
        </mxCell>
        <mxCell id="UGpgBa6ZrkNbVxkZz9o0-121" style="edgeStyle=orthogonalEdgeStyle;rounded=0;orthogonalLoop=1;jettySize=auto;html=1;exitX=1;exitY=0.25;exitDx=0;exitDy=0;endArrow=oval;endFill=0;" edge="1" parent="1">
          <mxGeometry relative="1" as="geometry">
            <mxPoint x="1470" y="349.5728571428571" as="targetPoint" />
            <mxPoint x="1440" y="349.43" as="sourcePoint" />
          </mxGeometry>
        </mxCell>
        <mxCell id="UGpgBa6ZrkNbVxkZz9o0-122" style="edgeStyle=orthogonalEdgeStyle;rounded=0;orthogonalLoop=1;jettySize=auto;html=1;exitX=1;exitY=0.25;exitDx=0;exitDy=0;endArrow=oval;endFill=0;" edge="1" parent="1">
          <mxGeometry relative="1" as="geometry">
            <mxPoint x="1470" y="365.1428571428571" as="targetPoint" />
            <mxPoint x="1440" y="365" as="sourcePoint" />
          </mxGeometry>
        </mxCell>
        <mxCell id="UGpgBa6ZrkNbVxkZz9o0-123" value="id" style="text;strokeColor=none;align=center;fillColor=none;html=1;verticalAlign=middle;whiteSpace=wrap;rounded=0;" vertex="1" parent="1">
          <mxGeometry x="1470" y="325" width="20" height="20" as="geometry" />
        </mxCell>
        <mxCell id="UGpgBa6ZrkNbVxkZz9o0-124" value="fecha" style="text;strokeColor=none;align=center;fillColor=none;html=1;verticalAlign=middle;whiteSpace=wrap;rounded=0;" vertex="1" parent="1">
          <mxGeometry x="1480" y="340" width="20" height="20" as="geometry" />
        </mxCell>
        <mxCell id="UGpgBa6ZrkNbVxkZz9o0-125" value="total" style="text;strokeColor=none;align=center;fillColor=none;html=1;verticalAlign=middle;whiteSpace=wrap;rounded=0;" vertex="1" parent="1">
          <mxGeometry x="1470" y="355" width="30" height="20" as="geometry" />
        </mxCell>
        <mxCell id="UGpgBa6ZrkNbVxkZz9o0-126" style="rounded=0;orthogonalLoop=1;jettySize=auto;html=1;exitX=0;exitY=0;exitDx=0;exitDy=0;endArrow=oval;endFill=0;" edge="1" parent="1">
          <mxGeometry relative="1" as="geometry">
            <mxPoint x="110" y="390" as="targetPoint" />
            <mxPoint x="155" y="390.1428571428571" as="sourcePoint" />
          </mxGeometry>
        </mxCell>
      </root>
    </mxGraphModel>
  </diagram>
</mxfile>
